<?xml version="1.0" encoding="UTF-8" standalone="no"?>
<svg
   xmlns:dc="http://purl.org/dc/elements/1.1/"
   xmlns:cc="http://creativecommons.org/ns#"
   xmlns:rdf="http://www.w3.org/1999/02/22-rdf-syntax-ns#"
   xmlns:svg="http://www.w3.org/2000/svg"
   xmlns="http://www.w3.org/2000/svg"
   xmlns:sodipodi="http://sodipodi.sourceforge.net/DTD/sodipodi-0.dtd"
   xmlns:inkscape="http://www.inkscape.org/namespaces/inkscape"
   width="30"
   height="30"
   viewBox="0 0 30 30"
   fill="none"
   version="1.1"
   id="svg4"
   sodipodi:docname="avans_symbol_red.svg"
   inkscape:version="0.92.4 (5da689c313, 2019-01-14)">
  <metadata
     id="metadata10">
    <rdf:RDF>
      <cc:Work
         rdf:about="">
        <dc:format>image/svg+xml</dc:format>
        <dc:type
           rdf:resource="http://purl.org/dc/dcmitype/StillImage" />
        <dc:title></dc:title>
      </cc:Work>
    </rdf:RDF>
  </metadata>
  <defs
     id="defs8" />
  <sodipodi:namedview
     pagecolor="#ffffff"
     bordercolor="#666666"
     borderopacity="1"
     objecttolerance="10"
     gridtolerance="10"
     guidetolerance="10"
     inkscape:pageopacity="0"
     inkscape:pageshadow="2"
     inkscape:window-width="2560"
     inkscape:window-height="1521"
     id="namedview6"
     showgrid="false"
     inkscape:zoom="7.8666667"
     inkscape:cx="15"
     inkscape:cy="15"
     inkscape:window-x="-9"
     inkscape:window-y="-9"
     inkscape:window-maximized="1"
     inkscape:current-layer="svg4" />
     <style>
  path {
    fill: #c6002a;
  }

  @media (prefers-color-scheme: dark) {
    path {
      fill: #fff;
    } 
  }
</style>
  <path
     d="M9.73699 1.5458C7.54734 2.51908 8.05264 5.38168 8.38951 7.55725C10.2984 6.87023 13.1057 5.72519 15.9691 5.72519C18.8886 5.72519 20.1799 6.58397 19.6746 9.10305C19.1693 11.6221 16.6428 23.9885 16.5866 24.3321C16.1375 24.6756 9.96157 26.0496 10.0739 21.813C10.1861 17.6336 13.3302 16.0305 15.2392 15.229C16.5866 14.5992 16.6989 11.3931 16.9235 10.5344C10.3546 11.4504 3.39263 13.855 2.21359 20.6679C0.978408 27.4809 5.18926 29.9427 12.5442 30C19.9553 30 23.8855 27.7672 23.8855 27.7672C23.8855 27.7672 26.6927 14.084 27.3664 10.7061C28.0402 7.32824 27.7033 4.58015 26.2435 2.80534C24.7838 1.03053 22.2573 0 18.8886 0C13.7794 0 10.4107 1.25954 9.73699 1.5458Z"
     
     id="path2"
/>
</svg>
