<svg width="264" height="63" viewBox="0 0 264 63" fill="none" xmlns="http://www.w3.org/2000/svg">
<path d="M8.67367 60.7073C5.76853 61.2026 2.87731 61.7285 0 62.2851V0.709538H8.74045C8.74045 9.28581 8.74045 17.8593 8.74045 26.43C12.0407 26.1796 15.3438 25.9375 18.6496 25.7037L18.7081 0.659439H27.6071C27.5515 19.6653 27.4958 38.6711 27.4402 57.6769C24.485 58.1166 21.5325 58.573 18.5829 59.046L18.6413 34.0017C15.341 34.3078 12.0407 34.6278 8.74045 34.9618C8.70706 43.5492 8.6848 52.131 8.67367 60.7073Z" fill="#E50914"/>
<path d="M67.177 52.9018C64.2329 53.1689 61.2916 53.4472 58.3531 53.7366C57.8634 50.5754 57.3736 47.4032 56.8838 44.2197C53.3053 44.5314 49.7323 44.8653 46.1649 45.2215C45.6473 48.5608 45.1325 51.9195 44.6205 55.2977C41.9491 55.626 39.2777 55.9711 36.6063 56.3328C39.6339 37.3604 42.667 18.7803 45.7057 0.592621H58.495C61.389 18.3462 64.283 35.7826 67.177 52.9018ZM47.3002 37.7583C50.0829 37.5301 52.8907 37.3103 55.7235 37.0988C54.3544 28.1942 52.9881 19.2144 51.6246 10.1595C50.1831 19.2812 48.7417 28.4808 47.3002 37.7583Z" fill="#E50914"/>
<path d="M101.471 31.9482C101.471 34.1744 101.471 36.4005 101.471 38.6267C101.471 46.6325 96.9715 51.3575 88.3646 51.8918C79.7577 52.4261 75.2748 48.0934 75.3332 39.8204L75.4417 12.9813C75.4417 4.70002 79.9413 -0.016652 88.5232 4.41762e-05C97.105 0.0167404 101.546 4.58315 101.521 12.5806V17.4392L93.2482 17.5811C93.2482 15.7779 93.2482 13.9775 93.2482 12.1799C93.2482 8.58188 91.5118 7.22115 88.7319 7.2462C85.952 7.27124 84.1989 8.66536 84.1822 12.3135L84.082 39.8622C84.082 43.5103 85.8184 44.7124 88.6067 44.5622C91.3949 44.4119 93.1564 43.0345 93.1647 39.4364V32.232C95.9419 32.1207 98.7106 32.0261 101.471 31.9482Z" fill="#E50914"/>
<path d="M122.767 30.3035L120.054 34.8533C120.054 39.9178 120.054 44.9823 120.054 50.0468C117.126 50.0969 114.202 50.1637 111.28 50.2471C111.308 33.6901 111.338 17.1303 111.372 0.567642H120.112C120.112 7.75257 120.112 14.9403 120.112 22.1308C123.941 14.8957 127.762 7.70805 131.574 0.567642H140.315C136.269 7.9084 132.214 15.2464 128.152 22.5816C132.209 31.6977 136.277 40.8361 140.356 49.9967C137.351 49.9633 134.346 49.9466 131.34 49.9466C128.469 43.3906 125.611 36.8429 122.767 30.3035Z" fill="#E50914"/>
<path d="M158.263 22.7235C162.031 22.7847 165.799 22.8598 169.566 22.9489V30.1449C165.799 30.0281 162.028 29.9279 158.255 29.8444L158.296 50.4308C155.369 50.3251 152.444 50.236 149.523 50.1637C149.523 33.6344 149.498 17.1024 149.447 0.567642H172.572V7.78874L158.18 7.68857L158.263 22.7235Z" fill="#E50914"/>
<path d="M181.905 0.584274H190.645L190.821 44.9711C195.624 45.3106 200.421 45.6946 205.213 46.1231V53.7115C197.505 52.9157 189.785 52.2451 182.055 51.6997L181.905 0.584274Z" fill="#E50914"/>
<path d="M214.145 0.617722H222.886L223.094 55.7819C220.184 55.409 217.273 55.0528 214.362 54.7134L214.145 0.617722Z" fill="#E50914"/>
<path d="M263.366 0.70124C260.321 10.6466 257.288 20.3276 254.266 29.7443C257.527 40.2796 260.772 51.1321 264 62.3018C260.956 61.7453 257.895 61.1887 254.817 60.6322C252.441 52.3119 250.056 44.1614 247.663 36.1806C245.275 43.6884 242.893 51.0542 240.517 58.2781C237.801 57.8606 235.082 57.4571 232.361 57.0676C235.578 47.8568 238.797 38.4235 242.019 28.7675C238.958 19.1672 235.898 9.7951 232.837 0.651154H241.894C244.12 7.75816 246.333 14.9932 248.531 22.3562C250.757 15.2603 252.983 8.0253 255.209 0.651154L263.366 0.70124Z" fill="#E50914"/>
</svg>
